<?xml version="1.0" encoding="UTF-8"?>
<svg xmlns="http://www.w3.org/2000/svg" xmlns:xlink="http://www.w3.org/1999/xlink" width="576pt" height="432pt" viewBox="0 0 576 432" version="1.1">
<defs>
<clipPath id="clip1">
  <path d="M 121 43.199219 L 124 43.199219 L 124 388.800781 L 121 388.800781 Z M 121 43.199219 "/>
</clipPath>
</defs>
<g id="surface1">
<rect x="0" y="0" width="576" height="432" style="fill:rgb(100%,100%,100%);fill-opacity:1;stroke:none;"/>
<path style="fill-rule:nonzero;fill:rgb(0%,0%,0%);fill-opacity:1;stroke-width:1;stroke-linecap:butt;stroke-linejoin:round;stroke:rgb(0%,0%,0%);stroke-opacity:1;stroke-miterlimit:10;" d="M 122.398438 80.726562 C 122.992188 80.726562 123.5625 80.960938 123.980469 81.382812 C 124.402344 81.800781 124.636719 82.371094 124.636719 82.960938 C 124.636719 83.554688 124.402344 84.125 123.980469 84.542969 C 123.5625 84.964844 122.992188 85.199219 122.398438 85.199219 C 121.808594 85.199219 121.238281 84.964844 120.820312 84.542969 C 120.398438 84.125 120.164062 83.554688 120.164062 82.960938 C 120.164062 82.371094 120.398438 81.800781 120.820312 81.382812 C 121.238281 80.960938 121.808594 80.726562 122.398438 80.726562 Z M 122.398438 80.726562 " transform="matrix(1,0,0,-1,0,432)"/>
<path style="fill-rule:nonzero;fill:rgb(0%,0%,0%);fill-opacity:1;stroke-width:1;stroke-linecap:butt;stroke-linejoin:round;stroke:rgb(0%,0%,0%);stroke-opacity:1;stroke-miterlimit:10;" d="M 122.398438 251.457031 C 122.992188 251.457031 123.5625 251.691406 123.980469 252.113281 C 124.402344 252.53125 124.636719 253.101562 124.636719 253.695312 C 124.636719 254.285156 124.402344 254.855469 123.980469 255.273438 C 123.5625 255.695312 122.992188 255.929688 122.398438 255.929688 C 121.808594 255.929688 121.238281 255.695312 120.820312 255.273438 C 120.398438 254.855469 120.164062 254.285156 120.164062 253.695312 C 120.164062 253.101562 120.398438 252.53125 120.820312 252.113281 C 121.238281 251.691406 121.808594 251.457031 122.398438 251.457031 Z M 122.398438 251.457031 " transform="matrix(1,0,0,-1,0,432)"/>
<path style="fill-rule:nonzero;fill:rgb(0%,0%,0%);fill-opacity:1;stroke-width:1;stroke-linecap:butt;stroke-linejoin:round;stroke:rgb(0%,0%,0%);stroke-opacity:1;stroke-miterlimit:10;" d="M 122.398438 87.0625 C 122.992188 87.0625 123.5625 87.300781 123.980469 87.71875 C 124.402344 88.136719 124.636719 88.707031 124.636719 89.300781 C 124.636719 89.894531 124.402344 90.460938 123.980469 90.882812 C 123.5625 91.300781 122.992188 91.535156 122.398438 91.535156 C 121.808594 91.535156 121.238281 91.300781 120.820312 90.882812 C 120.398438 90.460938 120.164062 89.894531 120.164062 89.300781 C 120.164062 88.707031 120.398438 88.136719 120.820312 87.71875 C 121.238281 87.300781 121.808594 87.0625 122.398438 87.0625 Z M 122.398438 87.0625 " transform="matrix(1,0,0,-1,0,432)"/>
<g clip-path="url(#clip1)" clip-rule="nonzero">
<path style="fill:none;stroke-width:1;stroke-linecap:square;stroke-linejoin:round;stroke:rgb(0%,0%,0%);stroke-opacity:1;stroke-miterlimit:10;" d="M 122.398438 43.199219 L 122.398438 388.800781 " transform="matrix(1,0,0,-1,0,432)"/>
</g>
</g>
</svg>
