<?xml version="1.0" encoding="UTF-8"?>
<svg xmlns="http://www.w3.org/2000/svg" xmlns:xlink="http://www.w3.org/1999/xlink" width="576pt" height="432pt" viewBox="0 0 576 432" version="1.1">
<defs>
<clipPath id="clip1">
  <path d="M 108 77 L 310 77 L 310 388.800781 L 108 388.800781 Z M 108 77 "/>
</clipPath>
<clipPath id="clip2">
  <path d="M 121 43.199219 L 124 43.199219 L 124 388.800781 L 121 388.800781 Z M 121 43.199219 "/>
</clipPath>
<clipPath id="clip3">
  <path d="M 208 43.199219 L 210 43.199219 L 210 388.800781 L 208 388.800781 Z M 208 43.199219 "/>
</clipPath>
<clipPath id="clip4">
  <path d="M 294 43.199219 L 296 43.199219 L 296 388.800781 L 294 388.800781 Z M 294 43.199219 "/>
</clipPath>
</defs>
<g id="surface1">
<rect x="0" y="0" width="576" height="432" style="fill:rgb(100%,100%,100%);fill-opacity:1;stroke:none;"/>
<path style="fill-rule:nonzero;fill:rgb(0%,0%,0%);fill-opacity:1;stroke-width:1;stroke-linecap:butt;stroke-linejoin:round;stroke:rgb(0%,0%,0%);stroke-opacity:1;stroke-miterlimit:10;" d="M 122.398438 80.726562 C 122.992188 80.726562 123.5625 80.960938 123.980469 81.382812 C 124.402344 81.800781 124.636719 82.371094 124.636719 82.960938 C 124.636719 83.554688 124.402344 84.125 123.980469 84.542969 C 123.5625 84.964844 122.992188 85.199219 122.398438 85.199219 C 121.808594 85.199219 121.238281 84.964844 120.820312 84.542969 C 120.398438 84.125 120.164062 83.554688 120.164062 82.960938 C 120.164062 82.371094 120.398438 81.800781 120.820312 81.382812 C 121.238281 80.960938 121.808594 80.726562 122.398438 80.726562 Z M 122.398438 80.726562 " transform="matrix(1,0,0,-1,0,432)"/>
<path style="fill-rule:nonzero;fill:rgb(0%,0%,0%);fill-opacity:1;stroke-width:1;stroke-linecap:butt;stroke-linejoin:round;stroke:rgb(0%,0%,0%);stroke-opacity:1;stroke-miterlimit:10;" d="M 122.398438 251.457031 C 122.992188 251.457031 123.5625 251.691406 123.980469 252.113281 C 124.402344 252.53125 124.636719 253.101562 124.636719 253.695312 C 124.636719 254.285156 124.402344 254.855469 123.980469 255.273438 C 123.5625 255.695312 122.992188 255.929688 122.398438 255.929688 C 121.808594 255.929688 121.238281 255.695312 120.820312 255.273438 C 120.398438 254.855469 120.164062 254.285156 120.164062 253.695312 C 120.164062 253.101562 120.398438 252.53125 120.820312 252.113281 C 121.238281 251.691406 121.808594 251.457031 122.398438 251.457031 Z M 122.398438 251.457031 " transform="matrix(1,0,0,-1,0,432)"/>
<path style="fill-rule:nonzero;fill:rgb(0%,0%,0%);fill-opacity:1;stroke-width:1;stroke-linecap:butt;stroke-linejoin:round;stroke:rgb(0%,0%,0%);stroke-opacity:1;stroke-miterlimit:10;" d="M 122.398438 87.0625 C 122.992188 87.0625 123.5625 87.300781 123.980469 87.71875 C 124.402344 88.136719 124.636719 88.707031 124.636719 89.300781 C 124.636719 89.894531 124.402344 90.460938 123.980469 90.882812 C 123.5625 91.300781 122.992188 91.535156 122.398438 91.535156 C 121.808594 91.535156 121.238281 91.300781 120.820312 90.882812 C 120.398438 90.460938 120.164062 89.894531 120.164062 89.300781 C 120.164062 88.707031 120.398438 88.136719 120.820312 87.71875 C 121.238281 87.300781 121.808594 87.0625 122.398438 87.0625 Z M 122.398438 87.0625 " transform="matrix(1,0,0,-1,0,432)"/>
<path style="fill-rule:nonzero;fill:rgb(0%,0%,0%);fill-opacity:1;stroke-width:1;stroke-linecap:butt;stroke-linejoin:round;stroke:rgb(0%,0%,0%);stroke-opacity:1;stroke-miterlimit:10;" d="M 122.398438 80.726562 C 122.992188 80.726562 123.5625 80.960938 123.980469 81.382812 C 124.402344 81.800781 124.636719 82.371094 124.636719 82.960938 C 124.636719 83.554688 124.402344 84.125 123.980469 84.542969 C 123.5625 84.964844 122.992188 85.199219 122.398438 85.199219 C 121.808594 85.199219 121.238281 84.964844 120.820312 84.542969 C 120.398438 84.125 120.164062 83.554688 120.164062 82.960938 C 120.164062 82.371094 120.398438 81.800781 120.820312 81.382812 C 121.238281 80.960938 121.808594 80.726562 122.398438 80.726562 Z M 122.398438 80.726562 " transform="matrix(1,0,0,-1,0,432)"/>
<path style="fill-rule:nonzero;fill:rgb(0%,0%,0%);fill-opacity:1;stroke-width:1;stroke-linecap:butt;stroke-linejoin:round;stroke:rgb(0%,0%,0%);stroke-opacity:1;stroke-miterlimit:10;" d="M 208.800781 124.113281 C 209.394531 124.113281 209.960938 124.347656 210.382812 124.765625 C 210.800781 125.1875 211.035156 125.753906 211.035156 126.347656 C 211.035156 126.941406 210.800781 127.507812 210.382812 127.929688 C 209.960938 128.347656 209.394531 128.582031 208.800781 128.582031 C 208.207031 128.582031 207.636719 128.347656 207.21875 127.929688 C 206.800781 127.507812 206.5625 126.941406 206.5625 126.347656 C 206.5625 125.753906 206.800781 125.1875 207.21875 124.765625 C 207.636719 124.347656 208.207031 124.113281 208.800781 124.113281 Z M 208.800781 124.113281 " transform="matrix(1,0,0,-1,0,432)"/>
<path style="fill-rule:nonzero;fill:rgb(0%,0%,0%);fill-opacity:1;stroke-width:1;stroke-linecap:butt;stroke-linejoin:round;stroke:rgb(0%,0%,0%);stroke-opacity:1;stroke-miterlimit:10;" d="M 122.398438 251.457031 C 122.992188 251.457031 123.5625 251.691406 123.980469 252.113281 C 124.402344 252.53125 124.636719 253.101562 124.636719 253.695312 C 124.636719 254.285156 124.402344 254.855469 123.980469 255.273438 C 123.5625 255.695312 122.992188 255.929688 122.398438 255.929688 C 121.808594 255.929688 121.238281 255.695312 120.820312 255.273438 C 120.398438 254.855469 120.164062 254.285156 120.164062 253.695312 C 120.164062 253.101562 120.398438 252.53125 120.820312 252.113281 C 121.238281 251.691406 121.808594 251.457031 122.398438 251.457031 Z M 122.398438 251.457031 " transform="matrix(1,0,0,-1,0,432)"/>
<path style="fill-rule:nonzero;fill:rgb(0%,0%,0%);fill-opacity:1;stroke-width:1;stroke-linecap:butt;stroke-linejoin:round;stroke:rgb(0%,0%,0%);stroke-opacity:1;stroke-miterlimit:10;" d="M 208.800781 154.023438 C 209.394531 154.023438 209.960938 154.257812 210.382812 154.679688 C 210.800781 155.097656 211.035156 155.667969 211.035156 156.257812 C 211.035156 156.851562 210.800781 157.421875 210.382812 157.839844 C 209.960938 158.257812 209.394531 158.496094 208.800781 158.496094 C 208.207031 158.496094 207.636719 158.257812 207.21875 157.839844 C 206.800781 157.421875 206.5625 156.851562 206.5625 156.257812 C 206.5625 155.667969 206.800781 155.097656 207.21875 154.679688 C 207.636719 154.257812 208.207031 154.023438 208.800781 154.023438 Z M 208.800781 154.023438 " transform="matrix(1,0,0,-1,0,432)"/>
<path style="fill-rule:nonzero;fill:rgb(0%,0%,0%);fill-opacity:1;stroke-width:1;stroke-linecap:butt;stroke-linejoin:round;stroke:rgb(0%,0%,0%);stroke-opacity:1;stroke-miterlimit:10;" d="M 122.398438 87.0625 C 122.992188 87.0625 123.5625 87.300781 123.980469 87.71875 C 124.402344 88.136719 124.636719 88.707031 124.636719 89.300781 C 124.636719 89.894531 124.402344 90.460938 123.980469 90.882812 C 123.5625 91.300781 122.992188 91.535156 122.398438 91.535156 C 121.808594 91.535156 121.238281 91.300781 120.820312 90.882812 C 120.398438 90.460938 120.164062 89.894531 120.164062 89.300781 C 120.164062 88.707031 120.398438 88.136719 120.820312 87.71875 C 121.238281 87.300781 121.808594 87.0625 122.398438 87.0625 Z M 122.398438 87.0625 " transform="matrix(1,0,0,-1,0,432)"/>
<path style="fill-rule:nonzero;fill:rgb(0%,0%,0%);fill-opacity:1;stroke-width:1;stroke-linecap:butt;stroke-linejoin:round;stroke:rgb(0%,0%,0%);stroke-opacity:1;stroke-miterlimit:10;" d="M 208.800781 337.882812 C 209.394531 337.882812 209.960938 338.117188 210.382812 338.535156 C 210.800781 338.957031 211.035156 339.523438 211.035156 340.117188 C 211.035156 340.710938 210.800781 341.28125 210.382812 341.699219 C 209.960938 342.117188 209.394531 342.355469 208.800781 342.355469 C 208.207031 342.355469 207.636719 342.117188 207.21875 341.699219 C 206.800781 341.28125 206.5625 340.710938 206.5625 340.117188 C 206.5625 339.523438 206.800781 338.957031 207.21875 338.535156 C 207.636719 338.117188 208.207031 337.882812 208.800781 337.882812 Z M 208.800781 337.882812 " transform="matrix(1,0,0,-1,0,432)"/>
<path style="fill-rule:nonzero;fill:rgb(0%,0%,0%);fill-opacity:1;stroke-width:1;stroke-linecap:butt;stroke-linejoin:round;stroke:rgb(0%,0%,0%);stroke-opacity:1;stroke-miterlimit:10;" d="M 122.398438 80.726562 C 122.992188 80.726562 123.5625 80.960938 123.980469 81.382812 C 124.402344 81.800781 124.636719 82.371094 124.636719 82.960938 C 124.636719 83.554688 124.402344 84.125 123.980469 84.542969 C 123.5625 84.964844 122.992188 85.199219 122.398438 85.199219 C 121.808594 85.199219 121.238281 84.964844 120.820312 84.542969 C 120.398438 84.125 120.164062 83.554688 120.164062 82.960938 C 120.164062 82.371094 120.398438 81.800781 120.820312 81.382812 C 121.238281 80.960938 121.808594 80.726562 122.398438 80.726562 Z M 122.398438 80.726562 " transform="matrix(1,0,0,-1,0,432)"/>
<path style="fill-rule:nonzero;fill:rgb(0%,0%,0%);fill-opacity:1;stroke-width:1;stroke-linecap:butt;stroke-linejoin:round;stroke:rgb(0%,0%,0%);stroke-opacity:1;stroke-miterlimit:10;" d="M 208.800781 124.113281 C 209.394531 124.113281 209.960938 124.347656 210.382812 124.765625 C 210.800781 125.1875 211.035156 125.753906 211.035156 126.347656 C 211.035156 126.941406 210.800781 127.507812 210.382812 127.929688 C 209.960938 128.347656 209.394531 128.582031 208.800781 128.582031 C 208.207031 128.582031 207.636719 128.347656 207.21875 127.929688 C 206.800781 127.507812 206.5625 126.941406 206.5625 126.347656 C 206.5625 125.753906 206.800781 125.1875 207.21875 124.765625 C 207.636719 124.347656 208.207031 124.113281 208.800781 124.113281 Z M 208.800781 124.113281 " transform="matrix(1,0,0,-1,0,432)"/>
<path style="fill-rule:nonzero;fill:rgb(0%,0%,0%);fill-opacity:1;stroke-width:1;stroke-linecap:butt;stroke-linejoin:round;stroke:rgb(0%,0%,0%);stroke-opacity:1;stroke-miterlimit:10;" d="M 208.800781 124.113281 C 209.394531 124.113281 209.960938 124.347656 210.382812 124.765625 C 210.800781 125.1875 211.035156 125.753906 211.035156 126.347656 C 211.035156 126.941406 210.800781 127.507812 210.382812 127.929688 C 209.960938 128.347656 209.394531 128.582031 208.800781 128.582031 C 208.207031 128.582031 207.636719 128.347656 207.21875 127.929688 C 206.800781 127.507812 206.5625 126.941406 206.5625 126.347656 C 206.5625 125.753906 206.800781 125.1875 207.21875 124.765625 C 207.636719 124.347656 208.207031 124.113281 208.800781 124.113281 Z M 208.800781 124.113281 " transform="matrix(1,0,0,-1,0,432)"/>
<path style="fill-rule:nonzero;fill:rgb(0%,0%,0%);fill-opacity:1;stroke-width:1;stroke-linecap:butt;stroke-linejoin:round;stroke:rgb(0%,0%,0%);stroke-opacity:1;stroke-miterlimit:10;" d="M 295.199219 271.164062 C 295.792969 271.164062 296.363281 271.398438 296.78125 271.820312 C 297.199219 272.238281 297.4375 272.808594 297.4375 273.402344 C 297.4375 273.992188 297.199219 274.5625 296.78125 274.980469 C 296.363281 275.402344 295.792969 275.636719 295.199219 275.636719 C 294.605469 275.636719 294.039062 275.402344 293.617188 274.980469 C 293.199219 274.5625 292.964844 273.992188 292.964844 273.402344 C 292.964844 272.808594 293.199219 272.238281 293.617188 271.820312 C 294.039062 271.398438 294.605469 271.164062 295.199219 271.164062 Z M 295.199219 271.164062 " transform="matrix(1,0,0,-1,0,432)"/>
<path style="fill-rule:nonzero;fill:rgb(0%,0%,0%);fill-opacity:1;stroke-width:1;stroke-linecap:butt;stroke-linejoin:round;stroke:rgb(0%,0%,0%);stroke-opacity:1;stroke-miterlimit:10;" d="M 295.199219 271.164062 C 295.792969 271.164062 296.363281 271.398438 296.78125 271.820312 C 297.199219 272.238281 297.4375 272.808594 297.4375 273.402344 C 297.4375 273.992188 297.199219 274.5625 296.78125 274.980469 C 296.363281 275.402344 295.792969 275.636719 295.199219 275.636719 C 294.605469 275.636719 294.039062 275.402344 293.617188 274.980469 C 293.199219 274.5625 292.964844 273.992188 292.964844 273.402344 C 292.964844 272.808594 293.199219 272.238281 293.617188 271.820312 C 294.039062 271.398438 294.605469 271.164062 295.199219 271.164062 Z M 295.199219 271.164062 " transform="matrix(1,0,0,-1,0,432)"/>
<path style="fill-rule:nonzero;fill:rgb(0%,0%,0%);fill-opacity:1;stroke-width:1;stroke-linecap:butt;stroke-linejoin:round;stroke:rgb(0%,0%,0%);stroke-opacity:1;stroke-miterlimit:10;" d="M 122.398438 80.726562 C 122.992188 80.726562 123.5625 80.960938 123.980469 81.382812 C 124.402344 81.800781 124.636719 82.371094 124.636719 82.960938 C 124.636719 83.554688 124.402344 84.125 123.980469 84.542969 C 123.5625 84.964844 122.992188 85.199219 122.398438 85.199219 C 121.808594 85.199219 121.238281 84.964844 120.820312 84.542969 C 120.398438 84.125 120.164062 83.554688 120.164062 82.960938 C 120.164062 82.371094 120.398438 81.800781 120.820312 81.382812 C 121.238281 80.960938 121.808594 80.726562 122.398438 80.726562 Z M 122.398438 80.726562 " transform="matrix(1,0,0,-1,0,432)"/>
<path style="fill-rule:nonzero;fill:rgb(0%,0%,0%);fill-opacity:1;stroke-width:1;stroke-linecap:butt;stroke-linejoin:round;stroke:rgb(0%,0%,0%);stroke-opacity:1;stroke-miterlimit:10;" d="M 122.398438 251.457031 C 122.992188 251.457031 123.5625 251.691406 123.980469 252.113281 C 124.402344 252.53125 124.636719 253.101562 124.636719 253.695312 C 124.636719 254.285156 124.402344 254.855469 123.980469 255.273438 C 123.5625 255.695312 122.992188 255.929688 122.398438 255.929688 C 121.808594 255.929688 121.238281 255.695312 120.820312 255.273438 C 120.398438 254.855469 120.164062 254.285156 120.164062 253.695312 C 120.164062 253.101562 120.398438 252.53125 120.820312 252.113281 C 121.238281 251.691406 121.808594 251.457031 122.398438 251.457031 Z M 122.398438 251.457031 " transform="matrix(1,0,0,-1,0,432)"/>
<path style="fill-rule:nonzero;fill:rgb(0%,0%,0%);fill-opacity:1;stroke-width:1;stroke-linecap:butt;stroke-linejoin:round;stroke:rgb(0%,0%,0%);stroke-opacity:1;stroke-miterlimit:10;" d="M 208.800781 154.023438 C 209.394531 154.023438 209.960938 154.257812 210.382812 154.679688 C 210.800781 155.097656 211.035156 155.667969 211.035156 156.257812 C 211.035156 156.851562 210.800781 157.421875 210.382812 157.839844 C 209.960938 158.257812 209.394531 158.496094 208.800781 158.496094 C 208.207031 158.496094 207.636719 158.257812 207.21875 157.839844 C 206.800781 157.421875 206.5625 156.851562 206.5625 156.257812 C 206.5625 155.667969 206.800781 155.097656 207.21875 154.679688 C 207.636719 154.257812 208.207031 154.023438 208.800781 154.023438 Z M 208.800781 154.023438 " transform="matrix(1,0,0,-1,0,432)"/>
<path style="fill-rule:nonzero;fill:rgb(0%,0%,0%);fill-opacity:1;stroke-width:1;stroke-linecap:butt;stroke-linejoin:round;stroke:rgb(0%,0%,0%);stroke-opacity:1;stroke-miterlimit:10;" d="M 208.800781 154.023438 C 209.394531 154.023438 209.960938 154.257812 210.382812 154.679688 C 210.800781 155.097656 211.035156 155.667969 211.035156 156.257812 C 211.035156 156.851562 210.800781 157.421875 210.382812 157.839844 C 209.960938 158.257812 209.394531 158.496094 208.800781 158.496094 C 208.207031 158.496094 207.636719 158.257812 207.21875 157.839844 C 206.800781 157.421875 206.5625 156.851562 206.5625 156.257812 C 206.5625 155.667969 206.800781 155.097656 207.21875 154.679688 C 207.636719 154.257812 208.207031 154.023438 208.800781 154.023438 Z M 208.800781 154.023438 " transform="matrix(1,0,0,-1,0,432)"/>
<path style="fill-rule:nonzero;fill:rgb(0%,0%,0%);fill-opacity:1;stroke-width:1;stroke-linecap:butt;stroke-linejoin:round;stroke:rgb(0%,0%,0%);stroke-opacity:1;stroke-miterlimit:10;" d="M 295.199219 227.988281 C 295.792969 227.988281 296.363281 228.226562 296.78125 228.644531 C 297.199219 229.0625 297.4375 229.632812 297.4375 230.226562 C 297.4375 230.820312 297.199219 231.386719 296.78125 231.808594 C 296.363281 232.226562 295.792969 232.460938 295.199219 232.460938 C 294.605469 232.460938 294.039062 232.226562 293.617188 231.808594 C 293.199219 231.386719 292.964844 230.820312 292.964844 230.226562 C 292.964844 229.632812 293.199219 229.0625 293.617188 228.644531 C 294.039062 228.226562 294.605469 227.988281 295.199219 227.988281 Z M 295.199219 227.988281 " transform="matrix(1,0,0,-1,0,432)"/>
<path style="fill-rule:nonzero;fill:rgb(0%,0%,0%);fill-opacity:1;stroke-width:1;stroke-linecap:butt;stroke-linejoin:round;stroke:rgb(0%,0%,0%);stroke-opacity:1;stroke-miterlimit:10;" d="M 295.199219 227.988281 C 295.792969 227.988281 296.363281 228.226562 296.78125 228.644531 C 297.199219 229.0625 297.4375 229.632812 297.4375 230.226562 C 297.4375 230.820312 297.199219 231.386719 296.78125 231.808594 C 296.363281 232.226562 295.792969 232.460938 295.199219 232.460938 C 294.605469 232.460938 294.039062 232.226562 293.617188 231.808594 C 293.199219 231.386719 292.964844 230.820312 292.964844 230.226562 C 292.964844 229.632812 293.199219 229.0625 293.617188 228.644531 C 294.039062 228.226562 294.605469 227.988281 295.199219 227.988281 Z M 295.199219 227.988281 " transform="matrix(1,0,0,-1,0,432)"/>
<path style="fill-rule:nonzero;fill:rgb(0%,0%,0%);fill-opacity:1;stroke-width:1;stroke-linecap:butt;stroke-linejoin:round;stroke:rgb(0%,0%,0%);stroke-opacity:1;stroke-miterlimit:10;" d="M 122.398438 251.457031 C 122.992188 251.457031 123.5625 251.691406 123.980469 252.113281 C 124.402344 252.53125 124.636719 253.101562 124.636719 253.695312 C 124.636719 254.285156 124.402344 254.855469 123.980469 255.273438 C 123.5625 255.695312 122.992188 255.929688 122.398438 255.929688 C 121.808594 255.929688 121.238281 255.695312 120.820312 255.273438 C 120.398438 254.855469 120.164062 254.285156 120.164062 253.695312 C 120.164062 253.101562 120.398438 252.53125 120.820312 252.113281 C 121.238281 251.691406 121.808594 251.457031 122.398438 251.457031 Z M 122.398438 251.457031 " transform="matrix(1,0,0,-1,0,432)"/>
<path style="fill-rule:nonzero;fill:rgb(0%,0%,0%);fill-opacity:1;stroke-width:1;stroke-linecap:butt;stroke-linejoin:round;stroke:rgb(0%,0%,0%);stroke-opacity:1;stroke-miterlimit:10;" d="M 122.398438 87.0625 C 122.992188 87.0625 123.5625 87.300781 123.980469 87.71875 C 124.402344 88.136719 124.636719 88.707031 124.636719 89.300781 C 124.636719 89.894531 124.402344 90.460938 123.980469 90.882812 C 123.5625 91.300781 122.992188 91.535156 122.398438 91.535156 C 121.808594 91.535156 121.238281 91.300781 120.820312 90.882812 C 120.398438 90.460938 120.164062 89.894531 120.164062 89.300781 C 120.164062 88.707031 120.398438 88.136719 120.820312 87.71875 C 121.238281 87.300781 121.808594 87.0625 122.398438 87.0625 Z M 122.398438 87.0625 " transform="matrix(1,0,0,-1,0,432)"/>
<path style="fill-rule:nonzero;fill:rgb(0%,0%,0%);fill-opacity:1;stroke-width:1;stroke-linecap:butt;stroke-linejoin:round;stroke:rgb(0%,0%,0%);stroke-opacity:1;stroke-miterlimit:10;" d="M 208.800781 337.882812 C 209.394531 337.882812 209.960938 338.117188 210.382812 338.535156 C 210.800781 338.957031 211.035156 339.523438 211.035156 340.117188 C 211.035156 340.710938 210.800781 341.28125 210.382812 341.699219 C 209.960938 342.117188 209.394531 342.355469 208.800781 342.355469 C 208.207031 342.355469 207.636719 342.117188 207.21875 341.699219 C 206.800781 341.28125 206.5625 340.710938 206.5625 340.117188 C 206.5625 339.523438 206.800781 338.957031 207.21875 338.535156 C 207.636719 338.117188 208.207031 337.882812 208.800781 337.882812 Z M 208.800781 337.882812 " transform="matrix(1,0,0,-1,0,432)"/>
<path style="fill-rule:nonzero;fill:rgb(0%,0%,0%);fill-opacity:1;stroke-width:1;stroke-linecap:butt;stroke-linejoin:round;stroke:rgb(0%,0%,0%);stroke-opacity:1;stroke-miterlimit:10;" d="M 208.800781 337.882812 C 209.394531 337.882812 209.960938 338.117188 210.382812 338.535156 C 210.800781 338.957031 211.035156 339.523438 211.035156 340.117188 C 211.035156 340.710938 210.800781 341.28125 210.382812 341.699219 C 209.960938 342.117188 209.394531 342.355469 208.800781 342.355469 C 208.207031 342.355469 207.636719 342.117188 207.21875 341.699219 C 206.800781 341.28125 206.5625 340.710938 206.5625 340.117188 C 206.5625 339.523438 206.800781 338.957031 207.21875 338.535156 C 207.636719 338.117188 208.207031 337.882812 208.800781 337.882812 Z M 208.800781 337.882812 " transform="matrix(1,0,0,-1,0,432)"/>
<path style="fill-rule:nonzero;fill:rgb(0%,0%,0%);fill-opacity:1;stroke-width:1;stroke-linecap:butt;stroke-linejoin:round;stroke:rgb(0%,0%,0%);stroke-opacity:1;stroke-miterlimit:10;" d="M 295.199219 50.992188 C 295.792969 50.992188 296.363281 51.226562 296.78125 51.644531 C 297.199219 52.066406 297.4375 52.632812 297.4375 53.226562 C 297.4375 53.820312 297.199219 54.390625 296.78125 54.808594 C 296.363281 55.226562 295.792969 55.464844 295.199219 55.464844 C 294.605469 55.464844 294.039062 55.226562 293.617188 54.808594 C 293.199219 54.390625 292.964844 53.820312 292.964844 53.226562 C 292.964844 52.632812 293.199219 52.066406 293.617188 51.644531 C 294.039062 51.226562 294.605469 50.992188 295.199219 50.992188 Z M 295.199219 50.992188 " transform="matrix(1,0,0,-1,0,432)"/>
<path style="fill-rule:nonzero;fill:rgb(0%,0%,0%);fill-opacity:1;stroke-width:1;stroke-linecap:butt;stroke-linejoin:round;stroke:rgb(0%,0%,0%);stroke-opacity:1;stroke-miterlimit:10;" d="M 295.199219 50.992188 C 295.792969 50.992188 296.363281 51.226562 296.78125 51.644531 C 297.199219 52.066406 297.4375 52.632812 297.4375 53.226562 C 297.4375 53.820312 297.199219 54.390625 296.78125 54.808594 C 296.363281 55.226562 295.792969 55.464844 295.199219 55.464844 C 294.605469 55.464844 294.039062 55.226562 293.617188 54.808594 C 293.199219 54.390625 292.964844 53.820312 292.964844 53.226562 C 292.964844 52.632812 293.199219 52.066406 293.617188 51.644531 C 294.039062 51.226562 294.605469 50.992188 295.199219 50.992188 Z M 295.199219 50.992188 " transform="matrix(1,0,0,-1,0,432)"/>
<path style="fill-rule:nonzero;fill:rgb(0%,0%,0%);fill-opacity:1;stroke-width:1;stroke-linecap:butt;stroke-linejoin:round;stroke:rgb(0%,0%,0%);stroke-opacity:1;stroke-miterlimit:10;" d="M 122.398438 87.0625 C 122.992188 87.0625 123.5625 87.300781 123.980469 87.71875 C 124.402344 88.136719 124.636719 88.707031 124.636719 89.300781 C 124.636719 89.894531 124.402344 90.460938 123.980469 90.882812 C 123.5625 91.300781 122.992188 91.535156 122.398438 91.535156 C 121.808594 91.535156 121.238281 91.300781 120.820312 90.882812 C 120.398438 90.460938 120.164062 89.894531 120.164062 89.300781 C 120.164062 88.707031 120.398438 88.136719 120.820312 87.71875 C 121.238281 87.300781 121.808594 87.0625 122.398438 87.0625 Z M 122.398438 87.0625 " transform="matrix(1,0,0,-1,0,432)"/>
<path style="fill-rule:nonzero;fill:rgb(0%,0%,0%);fill-opacity:0.2;stroke-width:1;stroke-linecap:butt;stroke-linejoin:miter;stroke:rgb(0%,0%,0%);stroke-opacity:0.2;stroke-miterlimit:10;" d="M 122.398438 82.960938 L 208.800781 126.347656 L 295.199219 273.402344 Z M 122.398438 82.960938 " transform="matrix(1,0,0,-1,0,432)"/>
<path style="fill-rule:nonzero;fill:rgb(0%,0%,0%);fill-opacity:0.2;stroke-width:1;stroke-linecap:butt;stroke-linejoin:miter;stroke:rgb(0%,0%,0%);stroke-opacity:0.2;stroke-miterlimit:10;" d="M 122.398438 253.695312 L 208.800781 156.257812 L 295.199219 230.226562 Z M 122.398438 253.695312 " transform="matrix(1,0,0,-1,0,432)"/>
<path style=" stroke:none;fill-rule:nonzero;fill:rgb(0%,0%,0%);fill-opacity:0.2;" d="M 122.398438 342.699219 L 208.800781 91.882812 L 295.199219 378.773438 Z M 122.398438 342.699219 "/>
<g clip-path="url(#clip1)" clip-rule="nonzero">
<path style="fill:none;stroke-width:1;stroke-linecap:butt;stroke-linejoin:miter;stroke:rgb(0%,0%,0%);stroke-opacity:0.2;stroke-miterlimit:10;" d="M 122.398438 89.300781 L 208.800781 340.117188 L 295.199219 53.226562 Z M 122.398438 89.300781 " transform="matrix(1,0,0,-1,0,432)"/>
</g>
<g clip-path="url(#clip2)" clip-rule="nonzero">
<path style="fill:none;stroke-width:1;stroke-linecap:square;stroke-linejoin:round;stroke:rgb(0%,0%,0%);stroke-opacity:1;stroke-miterlimit:10;" d="M 122.398438 43.199219 L 122.398438 388.800781 " transform="matrix(1,0,0,-1,0,432)"/>
</g>
<g clip-path="url(#clip3)" clip-rule="nonzero">
<path style="fill:none;stroke-width:1;stroke-linecap:square;stroke-linejoin:round;stroke:rgb(0%,0%,0%);stroke-opacity:1;stroke-miterlimit:10;" d="M 208.800781 43.199219 L 208.800781 388.800781 " transform="matrix(1,0,0,-1,0,432)"/>
</g>
<path style="fill:none;stroke-width:1;stroke-linecap:square;stroke-linejoin:round;stroke:rgb(0%,0%,0%);stroke-opacity:1;stroke-miterlimit:10;" d="M 122.398438 82.960938 L 208.800781 126.347656 " transform="matrix(1,0,0,-1,0,432)"/>
<path style="fill:none;stroke-width:1;stroke-linecap:square;stroke-linejoin:round;stroke:rgb(0%,0%,0%);stroke-opacity:1;stroke-miterlimit:10;" d="M 122.398438 253.695312 L 208.800781 156.257812 " transform="matrix(1,0,0,-1,0,432)"/>
<path style="fill:none;stroke-width:1;stroke-linecap:square;stroke-linejoin:round;stroke:rgb(0%,0%,0%);stroke-opacity:1;stroke-miterlimit:10;" d="M 122.398438 89.300781 L 208.800781 340.117188 " transform="matrix(1,0,0,-1,0,432)"/>
<g clip-path="url(#clip4)" clip-rule="nonzero">
<path style="fill:none;stroke-width:1;stroke-linecap:square;stroke-linejoin:round;stroke:rgb(0%,0%,0%);stroke-opacity:1;stroke-miterlimit:10;" d="M 295.199219 43.199219 L 295.199219 388.800781 " transform="matrix(1,0,0,-1,0,432)"/>
</g>
<path style="fill:none;stroke-width:1;stroke-linecap:square;stroke-linejoin:round;stroke:rgb(0%,0%,0%);stroke-opacity:1;stroke-miterlimit:10;" d="M 122.398438 82.960938 L 208.800781 126.347656 " transform="matrix(1,0,0,-1,0,432)"/>
<path style="fill:none;stroke-width:1;stroke-linecap:square;stroke-linejoin:round;stroke:rgb(0%,0%,0%);stroke-opacity:1;stroke-miterlimit:10;" d="M 208.800781 126.347656 L 295.199219 273.402344 " transform="matrix(1,0,0,-1,0,432)"/>
<path style="fill:none;stroke-width:1;stroke-linecap:square;stroke-linejoin:round;stroke:rgb(0%,0%,0%);stroke-opacity:1;stroke-miterlimit:10;" d="M 295.199219 273.402344 L 122.398438 82.960938 " transform="matrix(1,0,0,-1,0,432)"/>
<path style="fill:none;stroke-width:1;stroke-linecap:square;stroke-linejoin:round;stroke:rgb(0%,0%,0%);stroke-opacity:1;stroke-miterlimit:10;" d="M 122.398438 253.695312 L 208.800781 156.257812 " transform="matrix(1,0,0,-1,0,432)"/>
<path style="fill:none;stroke-width:1;stroke-linecap:square;stroke-linejoin:round;stroke:rgb(0%,0%,0%);stroke-opacity:1;stroke-miterlimit:10;" d="M 208.800781 156.257812 L 295.199219 230.226562 " transform="matrix(1,0,0,-1,0,432)"/>
<path style="fill:none;stroke-width:1;stroke-linecap:square;stroke-linejoin:round;stroke:rgb(0%,0%,0%);stroke-opacity:1;stroke-miterlimit:10;" d="M 295.199219 230.226562 L 122.398438 253.695312 " transform="matrix(1,0,0,-1,0,432)"/>
<path style="fill:none;stroke-width:1;stroke-linecap:square;stroke-linejoin:round;stroke:rgb(0%,0%,0%);stroke-opacity:1;stroke-miterlimit:10;" d="M 122.398438 89.300781 L 208.800781 340.117188 " transform="matrix(1,0,0,-1,0,432)"/>
<path style="fill:none;stroke-width:1;stroke-linecap:square;stroke-linejoin:round;stroke:rgb(0%,0%,0%);stroke-opacity:1;stroke-miterlimit:10;" d="M 208.800781 340.117188 L 295.199219 53.226562 " transform="matrix(1,0,0,-1,0,432)"/>
<path style="fill:none;stroke-width:1;stroke-linecap:square;stroke-linejoin:round;stroke:rgb(0%,0%,0%);stroke-opacity:1;stroke-miterlimit:10;" d="M 295.199219 53.226562 L 122.398438 89.300781 " transform="matrix(1,0,0,-1,0,432)"/>
</g>
</svg>
